<svg width="128" height="128" viewBox="0 0 128 128" fill="none" xmlns="http://www.w3.org/2000/svg">
<path d="M52.8617 0.555527C44.9165 2.60798 38.7012 7.99567 34.6645 16.3979C32.4219 21.1442 32.3578 21.3366 32.1656 30.5085C31.9733 38.4618 31.7811 40.1935 30.6278 42.3101C29.6026 44.1701 29.4103 45.3888 29.7307 47.5695C30.1792 51.2254 32.4219 57.3828 33.5111 58.3449C34.0237 58.7297 34.6645 60.3332 34.8567 61.9367C35.4334 65.8492 37.9323 70.7879 40.6234 73.4176C41.9645 74.7205 42.4786 76.6562 41.9609 78.4528L41.8409 78.8694C40.5594 83.3592 37.8682 88.1055 35.946 89.4524C34.9849 90.0938 28.3851 92.5952 21.1447 94.9683C8.6501 99.1374 7.8812 99.5222 5.12599 102.28C1.15335 106.321 0 110.105 0 119.021C0 124.472 0.192224 126.204 1.0252 126.974C1.92224 127.872 6.08711 128 37.7401 128C64.6515 128 73.622 127.808 74.1987 127.23C75.5442 125.883 75.0316 124.088 72.5327 121.201C66.6378 114.595 63.7545 105.808 64.2671 96.5718C64.5234 91.6331 65.2282 88.8751 67.9834 82.0122C68.7523 80.0881 68.6882 79.8956 66.4456 77.3942C64.4593 75.2135 64.0748 74.3155 64.0748 71.9424C64.0748 68.2865 65.3563 66.7471 73.1735 60.9105C77.3383 57.8318 80.2858 56.1 81.8876 55.8435C85.668 55.2021 85.7321 55.1379 86.7573 51.6103C88.167 46.9923 88.0388 43.8494 86.501 41.8611C85.3477 40.4501 85.2195 39.2956 85.2195 31.0216C85.2195 21.0159 84.7069 18.3221 82.3362 15.051C81.5032 13.8323 80.0295 11.395 79.1324 9.535C77.2102 5.62251 73.4938 2.67211 68.8804 1.26105C64.3952 -0.0858612 56.7062 -0.40657 52.8617 0.555527Z" fill="white"/>
<path d="M75.7364 65.8491C70.5463 69.7616 69.7774 70.5954 69.9697 72.0706C70.3541 75.2776 72.789 74.7003 79.0042 69.954C84.9632 65.4643 85.8602 64.3739 84.771 62.6422C83.5535 60.6539 81.6954 61.2952 75.7364 65.8491Z" fill="white"/>
<path d="M112.9 62.065C111.234 63.7326 112.195 65.2078 118.154 69.6975C124.369 74.3155 126.356 74.9569 127.701 72.7121C128.598 71.301 127.765 70.3389 121.165 65.3361C115.719 61.2312 114.309 60.6539 112.9 62.065Z" fill="white"/>
<path d="M89.3844 70.9802C81.8876 73.6099 76.249 78.4845 72.8531 85.3474C70.3542 90.2861 69.6493 94.0062 69.9697 100.612C70.226 105.679 70.5464 107.155 72.4046 111.003C77.6587 122.035 89.897 129.026 101.495 127.679C115.591 126.14 126.291 115.429 127.829 101.318C129.175 89.7088 122.191 77.5224 111.17 72.1989C107.069 70.2105 106.044 70.0181 99.9567 69.8257C94.3822 69.6333 92.5881 69.8257 89.3844 70.9802ZM100.213 80.2804C101.046 80.6011 101.238 81.948 101.238 88.7467V89.0308C101.238 94.0299 103.193 98.8309 106.685 102.408C112.131 107.988 113.028 109.784 111.17 111.324C109.504 112.735 107.389 111.452 101.687 105.679C98.1129 102.02 96.1122 97.1075 96.1122 91.9923V90.6709C96.1122 80.1521 96.6248 78.8693 100.213 80.2804Z" fill="white"/>
</svg>
