<svg width="21" height="20" viewBox="0 0 21 20" fill="none" xmlns="http://www.w3.org/2000/svg">
<g clip-path="url(#clip0_2559_14213)">
<path fill-rule="evenodd" clip-rule="evenodd" d="M20.4322 10.2271C20.4322 9.518 20.3675 8.83619 20.2473 8.18164H10.6695V12.0498H16.1425C15.9068 13.2998 15.1903 14.3589 14.1133 15.068V17.5771H17.3998C19.3228 15.8362 20.4322 13.2725 20.4322 10.2271Z" fill="#4285F4"/>
<path fill-rule="evenodd" clip-rule="evenodd" d="M10.6695 19.9999C13.4153 19.9999 15.7173 19.1044 17.3998 17.5772L14.1133 15.0681C13.2026 15.6681 12.0378 16.0226 10.6695 16.0226C8.0208 16.0226 5.77889 14.2635 4.9792 11.8999H1.58167V14.4908C3.25501 17.759 6.69415 19.9999 10.6695 19.9999Z" fill="#34A853"/>
<path fill-rule="evenodd" clip-rule="evenodd" d="M4.9792 11.9002C4.77581 11.3002 4.66025 10.6593 4.66025 10.0002C4.66025 9.3411 4.77581 8.70019 4.9792 8.10019V5.50928H1.58166C0.892912 6.85928 0.5 8.38655 0.5 10.0002C0.5 11.6138 0.892912 13.1411 1.58166 14.4911L4.9792 11.9002Z" fill="#FBBC05"/>
<path fill-rule="evenodd" clip-rule="evenodd" d="M10.6695 3.97727C12.1626 3.97727 13.5031 4.48182 14.557 5.47273L17.4738 2.60455C15.7126 0.990909 13.4106 0 10.6695 0C6.69415 0 3.25501 2.24091 1.58167 5.50909L4.9792 8.1C5.77889 5.73636 8.0208 3.97727 10.6695 3.97727Z" fill="#EA4335"/>
</g>
<defs>
<clipPath id="clip0_2559_14213">
<rect width="20" height="20" fill="white" transform="translate(0.5)"/>
</clipPath>
</defs>
</svg>
